<svg width="61" height="16" viewBox="0 0 61 16" fill="none" xmlns="http://www.w3.org/2000/svg">
<path fill-rule="evenodd" clip-rule="evenodd" d="M2.91797 8.80042C3.42839 8.40851 3.93878 8.0166 4.4492 7.62469C5.71707 8.78786 6.96765 9.92377 7.72261 10.282C10.0031 8.26979 12.3434 5.9926 14.505 4.50813C15.7917 3.31107 17.0926 2.98382 18.2301 2.91504C17.071 3.46465 15.9447 4.30685 14.9574 5.41178C12.749 7.78537 10.0891 10.514 7.96761 13.0004C6.23732 11.0059 4.50171 9.37283 2.91797 8.80042Z" fill="black" stroke="#2B2A29" stroke-width="0.01032" stroke-miterlimit="22.9256"/>
<path fill-rule="evenodd" clip-rule="evenodd" d="M13.0547 7.42326L13.3602 7.45291C13.4696 7.49644 13.7422 7.56192 13.9093 7.56292C14.2022 7.56466 14.1721 7.58598 14.2477 7.37276C14.2835 7.27187 14.3336 6.67362 14.3864 6.00499L14.2231 6.18688C14.1666 6.80018 14.1118 7.32159 14.0658 7.44363C14.0026 7.44434 13.212 7.279 13.1654 7.30494C13.1277 7.32595 13.067 7.38824 13.0547 7.42326ZM14.5091 4.51779C14.5368 4.23018 14.5625 4.02271 14.5844 3.96769C14.5909 3.98166 14.5993 4.16885 14.6085 4.43844L14.7558 4.33082L14.7098 3.72255C14.7037 3.68525 14.7009 3.65232 14.6746 3.63134C14.6487 3.61063 14.6026 3.60151 14.5636 3.62147C14.5135 3.64702 14.4969 3.74642 14.4781 3.79832C14.4443 3.89184 14.4049 4.22098 14.363 4.64644L14.5091 4.51779ZM14.6476 5.72855C14.6618 6.20037 14.6753 6.59488 14.6853 6.64387C14.7534 6.97844 14.8112 7.37035 14.8718 7.71796C14.8787 7.7577 14.8783 7.78806 14.9074 7.81008C14.9316 7.82843 14.984 7.83651 15.02 7.81822C15.0674 7.79409 15.1461 7.52083 15.1718 7.4497C15.2629 7.19798 15.3463 6.93029 15.4384 6.68716C15.6405 6.69902 15.8991 6.68682 16.1072 6.68575C16.2462 6.68501 16.2694 6.68072 16.2988 6.5739C16.3089 6.53715 16.3407 6.38414 16.3695 6.35473C16.4128 6.57604 16.4901 6.82424 16.5489 7.04827C16.5619 7.09776 16.5663 7.19859 16.6529 7.1685C16.6981 7.15282 16.7061 7.05661 16.7187 7.00806C16.7258 6.98052 16.7912 6.68686 16.819 6.66679C16.8306 6.65928 16.8222 6.66199 16.8462 6.65924L17.6039 6.64882C17.7277 6.64762 18.3342 6.64939 18.3972 6.62895C18.3472 6.61226 16.8678 6.58761 16.7609 6.60409C16.699 6.68565 16.6873 6.86291 16.6373 6.96293C16.6148 6.93659 16.4804 6.31224 16.4594 6.22306C16.4462 6.16678 16.4474 6.08125 16.3748 6.07293C16.2882 6.06303 16.2849 6.14941 16.2675 6.20911C16.2318 6.33127 16.1921 6.45347 16.161 6.57132C15.9773 6.57631 15.7829 6.56991 15.5979 6.56938C15.3037 6.56857 15.3377 6.54656 15.2612 6.75236C15.2176 6.86954 15.1753 6.98642 15.1323 7.1044C15.1173 7.14561 15.0233 7.42017 14.9972 7.45626C14.9962 7.45774 14.9941 7.46039 14.9922 7.46226L14.8455 5.5187L14.6476 5.72855Z" fill="black"/>
<path fill-rule="evenodd" clip-rule="evenodd" d="M14.3821 6.00326L14.5048 4.51605L14.6042 4.43672L14.6433 5.72685L14.8412 5.51697L14.7514 4.3291L14.6042 4.43672L14.5048 4.51605L14.3588 4.64472L14.2188 6.18516L14.3821 6.00326Z" fill="white"/>
<path fill-rule="evenodd" clip-rule="evenodd" d="M12.4743 7.59013C12.4658 7.61345 12.4645 7.61479 12.4504 7.63543L12.2814 6.98655C12.2608 6.90683 12.27 6.81181 12.161 6.82092C12.0619 6.92915 12.0757 7.29188 11.973 7.30447C11.8908 7.30518 11.0716 7.29281 11.0566 7.30618L10.957 7.39508C10.9769 7.40141 12.0042 7.41391 12.0596 7.3794C12.1045 7.35141 12.1486 7.08888 12.184 7.02633C12.2117 7.06975 12.3152 7.57465 12.3371 7.66988C12.352 7.73498 12.3652 7.97306 12.4916 7.91012C12.5373 7.88734 12.6045 7.60668 12.6232 7.52687L12.6615 7.40275L13.0544 7.42332L13.1651 7.30501L12.6078 7.28765C12.5634 7.28628 12.5514 7.33497 12.5422 7.3609L12.4743 7.59013Z" fill="white"/>
<path d="M9.76404 12.5513C8.38637 12.5513 7.26953 11.4445 7.26953 10.0793C7.26953 9.98892 7.27441 9.89969 7.28393 9.81184C7.43539 8.41728 8.54338 7.40097 9.56743 5.19643C9.65692 5.00387 9.73066 4.72649 9.75639 4.61187C9.76404 4.60041 9.78415 4.58436 9.8026 4.61187C10.1265 5.53648 10.2283 5.94682 11.5454 7.95498C11.6777 8.16894 11.971 8.67327 12.0851 8.97893C12.2278 9.361 12.3235 9.76774 12.2464 10.3256C12.1217 11.5752 11.0579 12.5513 9.76404 12.5513Z" fill="url(#paint0_radial_4826_938)"/>
<path d="M9.05088 6.8862C9.09041 6.88111 9.17713 6.87627 9.20774 6.89766C9.09169 7.31921 8.83655 8.24788 8.74473 8.59021C8.62996 9.01812 8.50371 9.31996 8.53431 10.3821C8.54707 10.619 8.52974 11.1042 8.35833 11.1501C8.18699 11.1959 7.9834 11.0495 7.90305 10.9704C7.82144 10.8762 7.66278 10.6045 7.68116 10.2713C7.70411 9.85485 7.68116 9.82046 7.86862 9.16713C8.1131 8.31512 8.60701 7.6809 9.05088 6.8862Z" fill="url(#paint1_radial_4826_938)"/>
<path d="M11.9909 9.99013C11.9921 9.96571 11.9779 9.95957 11.9729 9.98568C11.5781 12.0305 9.72966 12.1355 8.82031 11.9189C10.8087 12.8289 11.9247 11.3395 11.9909 9.99013Z" fill="url(#paint2_linear_4826_938)"/>
<path d="M13.6168 13.0829C13.1445 13.0829 12.7617 12.7036 12.7617 12.2356C12.7617 12.2047 12.7634 12.174 12.7667 12.1439C12.8186 11.666 13.1983 11.3176 13.5493 10.562C13.58 10.496 13.6053 10.4009 13.6141 10.3617C13.6168 10.3577 13.6236 10.3522 13.63 10.3617C13.741 10.6785 13.7759 10.8192 14.2272 11.5075C14.2726 11.5809 14.3731 11.7537 14.4122 11.8585C14.4611 11.9894 14.494 12.1289 14.4675 12.32C14.4248 12.7483 14.0602 13.0829 13.6168 13.0829Z" fill="url(#paint3_radial_4826_938)"/>
<path d="M13.3606 11.1412C13.3742 11.1394 13.4039 11.1377 13.4144 11.145C13.3745 11.2895 13.2871 11.6079 13.2557 11.7252C13.2163 11.8719 13.173 11.9753 13.1835 12.3394C13.1879 12.4206 13.182 12.5868 13.1232 12.6026C13.0645 12.6183 12.9947 12.5681 12.9672 12.541C12.9392 12.5087 12.8848 12.4156 12.8911 12.3014C12.899 12.1586 12.8911 12.1469 12.9554 11.9229C13.0392 11.6309 13.2084 11.4135 13.3606 11.1412Z" fill="url(#paint4_radial_4826_938)"/>
<path fill-rule="evenodd" clip-rule="evenodd" d="M52.1726 12.0518C52.4579 12.0518 52.6889 12.2827 52.6889 12.5674C52.6889 12.8522 52.4579 13.0831 52.1726 13.0831C51.8875 13.0831 51.6562 12.8522 51.6562 12.5674C51.6562 12.2827 51.8875 12.0518 52.1726 12.0518Z" fill="#E31E24"/>
<path fill-rule="evenodd" clip-rule="evenodd" d="M54.4851 12.0254C54.7703 12.0254 55.0014 12.2562 55.0014 12.5409C55.0014 12.8258 54.7703 13.0566 54.4851 13.0566C54.1999 13.0566 53.9688 12.8258 53.9688 12.5409C53.9688 12.2562 54.1999 12.0254 54.4851 12.0254Z" fill="#6EB535"/>
<path fill-rule="evenodd" clip-rule="evenodd" d="M56.657 12.0312C56.9422 12.0312 57.1733 12.2622 57.1733 12.5469C57.1733 12.8317 56.9422 13.0626 56.657 13.0626C56.3718 13.0626 56.1406 12.8317 56.1406 12.5469C56.1406 12.2622 56.3718 12.0312 56.657 12.0312Z" fill="#060ECB"/>
<path d="M26.2273 12.8899V12.6097C25.681 12.5442 25.5664 12.434 25.2825 11.7241C24.7245 10.3547 24.1938 8.96097 23.6475 7.56543L23.2101 7.67007L21.4623 11.7521C21.1785 12.4453 21.0871 12.5442 20.5078 12.6097L20.4961 12.8899H22.4033V12.6097C21.7831 12.5331 21.7656 12.4172 21.892 12.0492C21.9872 11.7241 22.1078 11.427 22.205 11.1636H23.8555C23.9994 11.5092 24.1296 11.8567 24.2152 12.0922C24.3396 12.434 24.3066 12.5274 23.7991 12.6097V12.8899H26.2273ZM23.6961 10.7376H22.3527C22.5685 10.1697 22.796 9.59055 23.0351 9.01521H23.0584L23.6961 10.7376ZM29.5712 11.9165C29.2621 12.1631 29.0171 12.2509 28.6594 12.2509C28.2998 12.2509 27.4638 11.8941 27.4638 10.8404C27.4638 9.9587 27.874 9.69519 28.187 9.69519C28.4203 9.69519 28.6925 9.81478 29.058 10.1062C29.1319 10.1604 29.1824 10.1941 29.2407 10.1941C29.3885 10.1941 29.5985 9.97353 29.6043 9.76054C29.6043 9.63539 29.5712 9.53643 29.4565 9.4654C29.3087 9.34581 29.0229 9.26921 28.7275 9.26921H28.7158C28.4028 9.26921 27.839 9.36261 27.2597 9.76622C26.7386 10.1343 26.414 10.6928 26.414 11.2851C26.414 12.1575 27.1003 12.9795 28.2609 12.9795C28.7683 12.9795 29.3321 12.632 29.7306 12.109L29.5712 11.9165ZM33.1873 11.9165C32.8781 12.1631 32.6332 12.2509 32.2755 12.2509C31.9158 12.2509 31.0799 11.8941 31.0799 10.8404C31.0799 9.9587 31.4901 9.69519 31.803 9.69519C32.0364 9.69519 32.3085 9.81478 32.674 10.1062C32.7479 10.1604 32.7984 10.1941 32.8568 10.1941C33.0045 10.1941 33.2145 9.97353 33.2203 9.76054C33.2203 9.63539 33.1873 9.53643 33.0726 9.4654C32.9248 9.34581 32.6391 9.26921 32.3435 9.26921H32.3319C32.0189 9.26921 31.4551 9.36261 30.8757 9.76622C30.3547 10.1343 30.03 10.6928 30.03 11.2851C30.03 12.1575 30.7163 12.9795 31.877 12.9795C32.3844 12.9795 32.9481 12.632 33.3468 12.109L33.1873 11.9165ZM38.0476 12.4471L37.8648 12.4359C37.546 12.3929 37.4993 12.322 37.4993 11.8978V9.30294C37.301 9.33654 37.0153 9.37014 36.7198 9.39065C36.4126 9.41499 36.1093 9.43179 35.8643 9.44304V9.67282L36.1442 9.73262C36.3717 9.77549 36.4184 9.83714 36.4184 10.209V12.1352C36.2298 12.3107 36.0295 12.3648 35.7963 12.3648C35.5046 12.3648 35.215 12.1725 35.215 11.6568V10.4948C35.215 10.0464 35.215 9.63354 35.2363 9.30294C34.9992 9.33654 34.692 9.37014 34.4043 9.39065C34.1263 9.41499 33.8697 9.43179 33.6695 9.44304V9.67282L33.8697 9.73262C34.0854 9.79242 34.1419 9.83714 34.1419 10.209V11.8212C34.1419 12.5517 34.5559 12.9777 35.2538 12.9777C35.5046 12.9777 35.7399 12.8842 35.9907 12.7423C36.1774 12.6339 36.2687 12.5592 36.4184 12.4471V12.9346L36.4923 12.9777C36.7547 12.9346 37.0269 12.8786 37.301 12.8281C37.7574 12.7342 38.0476 12.8543 38.0476 12.4471ZM41.0084 10.3229C40.9968 10.1585 40.8957 9.58313 40.8043 9.40004C40.6177 9.32901 40.3844 9.25995 39.984 9.26921C39.0993 9.26921 38.5666 9.76437 38.5666 10.3995C38.5666 11.102 39.2704 11.4159 39.6515 11.5914C40.1842 11.8268 40.293 12.0193 40.293 12.2434C40.293 12.4844 40.0985 12.6657 39.8361 12.6657C39.3094 12.6657 38.9127 12.1071 38.7319 11.6027L38.4811 11.612C38.4927 12.0304 38.5666 12.5891 38.6133 12.7142C38.7882 12.8338 39.2354 12.9795 39.6631 12.9795C40.3903 12.9795 41.1912 12.5946 41.1912 11.7932C41.1912 10.5647 39.4181 10.7677 39.4181 10.0053C39.4181 9.74189 39.6359 9.58313 39.8537 9.58313C40.26 9.58313 40.5322 9.92868 40.7538 10.3995L41.0084 10.3229ZM44.1268 12.5835L44.053 12.2939C43.8877 12.3593 43.7574 12.3929 43.6252 12.3929C43.4716 12.3929 43.1528 12.3312 43.1528 11.7016V9.75127H43.9227C44.053 9.67468 44.0704 9.44118 43.9733 9.3589H43.1528V8.18759L43.0342 8.13336L42.0719 8.76861V9.3589H41.7297L41.4906 9.64663L41.5353 9.75127H42.0719V11.965C42.0719 12.688 42.4646 12.9795 43.1198 12.9795C43.1645 12.9795 43.3006 12.9571 43.4503 12.8917L44.1268 12.5835ZM47.5135 11.8904C47.216 12.1313 46.8854 12.2397 46.5627 12.2397C45.9542 12.2397 45.4722 11.8194 45.4275 10.9619C46.2439 10.9283 47.2743 10.8572 47.4396 10.8312C47.6204 10.8087 47.6787 10.6948 47.6904 10.549C47.6904 9.89693 47.0858 9.26921 46.3121 9.26921H46.3062C45.8629 9.26921 45.3924 9.47479 45.0076 9.83158C44.6343 10.1847 44.3893 10.6891 44.3893 11.2664C44.3893 12.1911 45.0076 12.9795 46.1312 12.9795C46.4714 12.9795 47.1422 12.8207 47.6554 12.0828L47.5135 11.8904ZM46.1312 9.58313C46.4539 9.58313 46.6522 9.99033 46.6406 10.4107C46.6406 10.5377 46.5958 10.5547 46.4714 10.5547C46.1312 10.5695 45.8066 10.5807 45.4605 10.5807C45.5168 9.93622 45.8007 9.58313 46.1254 9.58313H46.1312ZM49.6617 10.1212V9.25809C49.1174 9.41314 48.6236 9.50271 48.1336 9.55694V9.79044C48.5205 9.87828 48.5886 9.91188 48.5886 10.3136V12.0529C48.5886 12.5461 48.503 12.5835 48.0423 12.632V12.8899H50.3733V12.632C49.7006 12.5778 49.6617 12.5461 49.6617 12.0529V10.5863C49.8036 10.2688 49.9806 10.1474 50.1457 10.1474C50.282 10.1474 50.4005 10.2071 50.5444 10.3173C50.6007 10.3659 50.6804 10.3883 50.8049 10.3491C51.0343 10.2688 51.215 10.0446 51.215 9.76054C51.215 9.48973 50.9818 9.27119 50.6357 9.27119C50.3325 9.26921 49.9922 9.61303 49.6773 10.1212H49.6617Z" fill="black"/>
<defs>
<radialGradient id="paint0_radial_4826_938" cx="0" cy="0" r="1" gradientUnits="userSpaceOnUse" gradientTransform="translate(9.77169 10.842) rotate(-90) scale(3.61572 2.27467)">
<stop stop-color="#FD7400"/>
<stop offset="1" stop-color="#B70400"/>
</radialGradient>
<radialGradient id="paint1_radial_4826_938" cx="0" cy="0" r="1" gradientTransform="matrix(-1.38113 4.01934 -1.43602 -0.491947 9.06228 6.99318)" gradientUnits="userSpaceOnUse">
<stop stop-color="#B70400"/>
<stop offset="0.36" stop-color="#D63700"/>
<stop offset="1" stop-color="#FFF7F2"/>
</radialGradient>
<linearGradient id="paint2_linear_4826_938" x1="11.9909" y1="9.56222" x2="10.4089" y2="12.2003" gradientUnits="userSpaceOnUse">
<stop stop-color="#E59F99"/>
<stop offset="1" stop-color="#E99479"/>
</linearGradient>
<radialGradient id="paint3_radial_4826_938" cx="0" cy="0" r="1" gradientUnits="userSpaceOnUse" gradientTransform="translate(13.6193 12.4971) rotate(-90) scale(1.23929 0.779643)">
<stop stop-color="#FD7400"/>
<stop offset="1" stop-color="#B70400"/>
</radialGradient>
<radialGradient id="paint4_radial_4826_938" cx="0" cy="0" r="1" gradientTransform="matrix(-0.473381 1.37763 -0.492195 -0.168614 13.3645 11.1778)" gradientUnits="userSpaceOnUse">
<stop stop-color="#B70400"/>
<stop offset="0.36" stop-color="#D63700"/>
<stop offset="1" stop-color="#FFF7F2"/>
</radialGradient>
</defs>
</svg>
