<svg width="23" height="16" viewBox="0 0 23 16" fill="none" xmlns="http://www.w3.org/2000/svg">
<path fill-rule="evenodd" clip-rule="evenodd" d="M6.26953 7.55257C6.64666 7.26301 7.02377 6.97345 7.4009 6.68388C8.33768 7.54329 9.26168 8.38258 9.81949 8.64723C11.5045 7.16051 13.2336 5.47799 14.8307 4.38117C15.7814 3.49671 16.7426 3.25492 17.5831 3.2041C16.7266 3.61019 15.8945 4.23245 15.165 5.04884C13.5333 6.80259 11.568 8.81866 10.0005 10.6558C8.72207 9.18209 7.43969 7.97551 6.26953 7.55257Z" fill="black"/>
<path fill-rule="evenodd" clip-rule="evenodd" d="M17.3954 12.333C17.5232 12.333 17.6267 12.4364 17.6267 12.564C17.6267 12.6916 17.5232 12.795 17.3954 12.795C17.2677 12.795 17.1641 12.6916 17.1641 12.564C17.1641 12.4364 17.2677 12.333 17.3954 12.333Z" fill="#E31E24"/>
<path fill-rule="evenodd" clip-rule="evenodd" d="M18.4305 12.3203C18.5583 12.3203 18.6618 12.4237 18.6618 12.5513C18.6618 12.6789 18.5583 12.7823 18.4305 12.7823C18.3028 12.7823 18.1992 12.6789 18.1992 12.5513C18.1992 12.4237 18.3028 12.3203 18.4305 12.3203Z" fill="#6EB535"/>
<path fill-rule="evenodd" clip-rule="evenodd" d="M19.4032 12.3223C19.5309 12.3223 19.6345 12.4257 19.6345 12.5533C19.6345 12.6808 19.5309 12.7843 19.4032 12.7843C19.2754 12.7843 19.1719 12.6808 19.1719 12.5533C19.1719 12.4257 19.2754 12.3223 19.4032 12.3223Z" fill="#060ECB"/>
<path d="M5.77048 12.7074V12.5819C5.52577 12.5526 5.47439 12.5032 5.34723 12.1852C5.09728 11.5717 4.85955 10.9474 4.61483 10.3223L4.41887 10.3691L3.63596 12.1977C3.50881 12.5082 3.46787 12.5526 3.20835 12.5819L3.20312 12.7074H4.05747V12.5819C3.77965 12.5476 3.77181 12.4957 3.82842 12.3308C3.87109 12.1852 3.92509 12.0521 3.96864 11.9341H4.70802C4.77246 12.0889 4.83079 12.2446 4.86912 12.3501C4.92487 12.5032 4.91006 12.545 4.68275 12.5819V12.7074H5.77048ZM4.63659 11.7433H4.03482C4.13148 11.4889 4.23338 11.2294 4.3405 10.9717H4.35095L4.63659 11.7433ZM7.26841 12.2714C7.12993 12.3818 7.0202 12.4212 6.85997 12.4212C6.69885 12.4212 6.32437 12.2613 6.32437 11.7893C6.32437 11.3944 6.50813 11.2763 6.64833 11.2763C6.75285 11.2763 6.87478 11.3299 7.0385 11.4604C7.0716 11.4847 7.09423 11.4998 7.12036 11.4998C7.18656 11.4998 7.28061 11.401 7.28322 11.3056C7.28322 11.2495 7.26841 11.2052 7.21702 11.1734C7.15083 11.1198 7.0228 11.0855 6.89044 11.0855H6.88523C6.74502 11.0855 6.49244 11.1273 6.23292 11.3081C5.99953 11.473 5.8541 11.7232 5.8541 11.9885C5.8541 12.3793 6.16152 12.7475 6.68145 12.7475C6.90874 12.7475 7.16129 12.5919 7.33981 12.3576L7.26841 12.2714ZM8.88825 12.2714C8.74974 12.3818 8.64004 12.4212 8.47981 12.4212C8.31869 12.4212 7.94421 12.2613 7.94421 11.7893C7.94421 11.3944 8.12797 11.2763 8.26816 11.2763C8.37269 11.2763 8.49461 11.3299 8.65834 11.4604C8.69143 11.4847 8.71407 11.4998 8.74021 11.4998C8.80639 11.4998 8.90045 11.401 8.90305 11.3056C8.90305 11.2495 8.88825 11.2052 8.83687 11.1734C8.77069 11.1198 8.64267 11.0855 8.51028 11.0855H8.50507C8.36485 11.0855 8.1123 11.1273 7.85278 11.3081C7.61939 11.473 7.47394 11.7232 7.47394 11.9885C7.47394 12.3793 7.78135 12.7475 8.30129 12.7475C8.52857 12.7475 8.78111 12.5919 8.9597 12.3576L8.88825 12.2714ZM11.0655 12.5091L10.9836 12.504C10.8408 12.4848 10.8199 12.453 10.8199 12.263V11.1006C10.731 11.1157 10.603 11.1307 10.4707 11.1399C10.3331 11.1508 10.1972 11.1583 10.0875 11.1634V11.2663L10.2128 11.2931C10.3148 11.3123 10.3357 11.3399 10.3357 11.5065V12.3693C10.2512 12.448 10.1615 12.4722 10.057 12.4722C9.92633 12.4722 9.79658 12.386 9.79658 12.155V11.6345C9.79658 11.4336 9.79658 11.2487 9.80611 11.1006C9.69992 11.1157 9.56229 11.1307 9.43343 11.1399C9.30888 11.1508 9.19393 11.1583 9.10425 11.1634V11.2663L9.19393 11.2931C9.29059 11.3199 9.31587 11.3399 9.31587 11.5065V12.2287C9.31587 12.5559 9.50132 12.7467 9.81399 12.7467C9.92634 12.7467 10.0317 12.7049 10.1441 12.6413C10.2277 12.5927 10.2686 12.5593 10.3357 12.5091V12.7274L10.3687 12.7467C10.4863 12.7274 10.6082 12.7024 10.731 12.6797C10.9355 12.6377 11.0655 12.6915 11.0655 12.5091ZM12.3918 11.5575C12.3866 11.4838 12.3413 11.2261 12.3004 11.1441C12.2168 11.1123 12.1122 11.0813 11.9329 11.0855C11.5366 11.0855 11.298 11.3073 11.298 11.5918C11.298 11.9065 11.6132 12.0471 11.784 12.1258C12.0226 12.2312 12.0713 12.3174 12.0713 12.4178C12.0713 12.5258 11.9842 12.607 11.8666 12.607C11.6307 12.607 11.453 12.3568 11.372 12.1308L11.2597 12.1349C11.2649 12.3224 11.298 12.5726 11.3189 12.6287C11.3972 12.6823 11.5976 12.7475 11.7892 12.7475C12.1149 12.7475 12.4737 12.5751 12.4737 12.2161C12.4737 11.6658 11.6794 11.7567 11.6794 11.4152C11.6794 11.2972 11.777 11.2261 11.8745 11.2261C12.0565 11.2261 12.1785 11.3809 12.2777 11.5918L12.3918 11.5575ZM13.7887 12.5702L13.7556 12.4404C13.6816 12.4697 13.6232 12.4848 13.564 12.4848C13.4952 12.4848 13.3524 12.4571 13.3524 12.1751V11.3014H13.6973C13.7556 11.2671 13.7635 11.1625 13.7199 11.1257H13.3524V10.601L13.2993 10.5767L12.8682 10.8612V11.1257H12.7149L12.6078 11.2546L12.6278 11.3014H12.8682V12.2931C12.8682 12.617 13.0441 12.7475 13.3376 12.7475C13.3576 12.7475 13.4186 12.7375 13.4857 12.7082L13.7887 12.5702ZM15.3058 12.2597C15.1726 12.3676 15.0245 12.4161 14.8799 12.4161C14.6073 12.4161 14.3914 12.2279 14.3714 11.8437C14.7371 11.8287 15.1987 11.7969 15.2727 11.7852C15.3537 11.7751 15.3798 11.7241 15.3851 11.6588C15.3851 11.3667 15.1142 11.0855 14.7676 11.0855H14.765C14.5664 11.0855 14.3556 11.1776 14.1833 11.3374C14.016 11.4956 13.9063 11.7215 13.9063 11.9801C13.9063 12.3944 14.1833 12.7475 14.6866 12.7475C14.839 12.7475 15.1395 12.6764 15.3694 12.3459L15.3058 12.2597ZM14.6866 11.2261C14.8311 11.2261 14.92 11.4085 14.9148 11.5969C14.9148 11.6537 14.8947 11.6613 14.839 11.6613C14.6866 11.668 14.5412 11.673 14.3862 11.673C14.4114 11.3843 14.5385 11.2261 14.684 11.2261H14.6866ZM16.2681 11.4671V11.0805C16.0243 11.15 15.8031 11.1901 15.5836 11.2144V11.319C15.7569 11.3583 15.7874 11.3734 15.7874 11.5534V12.3325C15.7874 12.5534 15.7491 12.5702 15.5427 12.5919V12.7074H16.5869V12.5919C16.2855 12.5676 16.2681 12.5534 16.2681 12.3325V11.6755C16.3317 11.5333 16.411 11.4789 16.4849 11.4789C16.546 11.4789 16.5991 11.5056 16.6635 11.555C16.6888 11.5768 16.7244 11.5868 16.7802 11.5692C16.883 11.5333 16.9639 11.4328 16.9639 11.3056C16.9639 11.1843 16.8595 11.0864 16.7044 11.0864C16.5686 11.0855 16.4162 11.2395 16.2751 11.4671H16.2681Z" fill="black"/>
<path fill-rule="evenodd" clip-rule="evenodd" d="M13.7578 6.534L13.9836 6.55591C14.0644 6.58807 14.2658 6.63645 14.3893 6.63719C14.6057 6.63848 14.5834 6.65423 14.6393 6.49669C14.6657 6.42214 14.7027 5.98012 14.7417 5.4861L14.6211 5.62049C14.5793 6.07363 14.5389 6.45889 14.5049 6.54906C14.4582 6.54958 13.874 6.42742 13.8396 6.44658C13.8117 6.46211 13.7669 6.50813 13.7578 6.534ZM14.8324 4.38726C14.8529 4.17477 14.8719 4.02147 14.8881 3.98082C14.8928 3.99114 14.899 4.12945 14.9059 4.32864L15.0147 4.24912L14.9807 3.7997C14.9762 3.77214 14.9741 3.74781 14.9547 3.7323C14.9356 3.717 14.9015 3.71027 14.8727 3.72501C14.8356 3.74389 14.8234 3.81733 14.8095 3.85568C14.7845 3.92478 14.7554 4.16796 14.7245 4.48232L14.8324 4.38726ZM14.9347 5.28185C14.9453 5.63046 14.9552 5.92195 14.9626 5.95814C15.0129 6.20534 15.0556 6.49491 15.1004 6.75175C15.1055 6.78111 15.1052 6.80354 15.1267 6.81981C15.1446 6.83337 15.1833 6.83934 15.2099 6.82582C15.245 6.808 15.303 6.6061 15.3221 6.55354C15.3894 6.36756 15.451 6.16977 15.519 5.99013C15.6684 5.99889 15.8595 5.98988 16.0132 5.98909C16.1159 5.98854 16.1331 5.98537 16.1548 5.90644C16.1622 5.87929 16.1857 5.76624 16.207 5.74451C16.239 5.90803 16.2961 6.09141 16.3396 6.25694C16.3492 6.29351 16.3524 6.368 16.4164 6.34577C16.4498 6.33418 16.4557 6.2631 16.465 6.22723C16.4703 6.20688 16.5185 5.98991 16.5391 5.97507C16.5477 5.96953 16.5415 5.97153 16.5592 5.9695L17.119 5.9618C17.2105 5.96091 17.6586 5.96222 17.7052 5.94712C17.6682 5.93479 16.5751 5.91657 16.4962 5.92875C16.4505 5.98901 16.4418 6.11998 16.4049 6.19388C16.3882 6.17442 16.2889 5.71311 16.2735 5.64722C16.2637 5.60564 16.2646 5.54244 16.2109 5.5363C16.1469 5.52898 16.1445 5.59281 16.1316 5.63692C16.1053 5.72717 16.0759 5.81747 16.053 5.90454C15.9172 5.90823 15.7736 5.9035 15.6369 5.9031C15.4195 5.90251 15.4446 5.88624 15.3881 6.0383C15.3559 6.12488 15.3247 6.21124 15.2928 6.29841C15.2818 6.32886 15.2124 6.53172 15.1931 6.55839C15.1923 6.55948 15.1908 6.56144 15.1894 6.56282L15.081 5.1268L14.9347 5.28185Z" fill="black"/>
<path fill-rule="evenodd" clip-rule="evenodd" d="M14.7418 5.48599L14.8324 4.38715L14.9059 4.32854L14.9348 5.28176L15.081 5.12669L15.0147 4.24902L14.9059 4.32854L14.8324 4.38715L14.7246 4.48222L14.6211 5.62039L14.7418 5.48599Z" fill="white"/>
<path fill-rule="evenodd" clip-rule="evenodd" d="M13.3281 6.65668C13.3218 6.6739 13.3208 6.6749 13.3104 6.69015L13.1856 6.21072C13.1703 6.15182 13.1772 6.08161 13.0966 6.08834C13.0234 6.1683 13.0336 6.43631 12.9577 6.44562C12.8969 6.44614 12.2917 6.437 12.2806 6.44688L12.207 6.51256C12.2217 6.51724 12.9807 6.52647 13.0217 6.50098C13.0548 6.4803 13.0874 6.28633 13.1136 6.24011C13.134 6.27219 13.2105 6.64524 13.2267 6.7156C13.2377 6.7637 13.2474 6.93961 13.3408 6.89311C13.3746 6.87627 13.4243 6.66891 13.4381 6.60993L13.4664 6.51823L13.7567 6.53343L13.8385 6.44601L13.4267 6.43319C13.3939 6.43218 13.385 6.46815 13.3782 6.48731L13.3281 6.65668Z" fill="white"/>
<path d="M11.3314 10.3226C10.3135 10.3226 9.48828 9.50491 9.48828 8.49619C9.48828 8.42943 9.49188 8.3635 9.49892 8.29859C9.61083 7.2682 10.4295 6.51729 11.1861 4.88845C11.2522 4.74617 11.3067 4.54123 11.3257 4.45654C11.3314 4.44807 11.3462 4.43621 11.3599 4.45654C11.5992 5.13969 11.6744 5.44288 12.6475 6.92663C12.7453 7.08471 12.962 7.45734 13.0463 7.68318C13.1517 7.96548 13.2225 8.266 13.1655 8.67816C13.0733 9.60143 12.2874 10.3226 11.3314 10.3226Z" fill="url(#paint0_radial_4826_903)"/>
<path d="M10.7983 6.13799C10.8275 6.13423 10.8916 6.13065 10.9142 6.14646C10.8284 6.45792 10.6399 7.14408 10.5721 7.39702C10.4873 7.71318 10.394 7.93619 10.4166 8.72097C10.426 8.89601 10.4132 9.25452 10.2866 9.28839C10.16 9.32226 10.0096 9.21406 9.95019 9.15568C9.88989 9.08605 9.77266 8.88527 9.78624 8.63911C9.8032 8.3314 9.78624 8.306 9.92475 7.82328C10.1054 7.19376 10.4703 6.72516 10.7983 6.13799Z" fill="url(#paint1_radial_4826_903)"/>
<path d="M12.9754 8.43084C12.9763 8.41279 12.9658 8.40826 12.9621 8.42755C12.6704 9.9384 11.3047 10.0159 10.6328 9.85594C12.1019 10.5283 12.9265 9.42782 12.9754 8.43084Z" fill="url(#paint2_linear_4826_903)"/>
<path d="M14.1708 10.7156C13.8219 10.7156 13.5391 10.4354 13.5391 10.0896C13.5391 10.0667 13.5403 10.0441 13.5427 10.0219C13.5811 9.66872 13.8616 9.41132 14.121 8.85303C14.1437 8.80427 14.1623 8.73405 14.1688 8.70502C14.1708 8.70212 14.1759 8.69805 14.1806 8.70502C14.2626 8.93914 14.2884 9.04308 14.6219 9.55161C14.6554 9.60585 14.7297 9.73352 14.7586 9.81095C14.7947 9.90769 14.819 10.0107 14.7994 10.152C14.7679 10.4684 14.4984 10.7156 14.1708 10.7156Z" fill="url(#paint3_radial_4826_903)"/>
<path d="M13.9918 9.28041C14.0018 9.27913 14.0237 9.27786 14.0315 9.28328C14.0021 9.39004 13.9375 9.62524 13.9143 9.71191C13.8852 9.82032 13.8532 9.89675 13.861 10.1657C13.8642 10.2257 13.8598 10.3486 13.8164 10.3602C13.773 10.3718 13.7214 10.3347 13.7011 10.3147C13.6804 10.2908 13.6402 10.2221 13.6449 10.1377C13.6507 10.0322 13.6449 10.0235 13.6924 9.85801C13.7543 9.64229 13.8794 9.48163 13.9918 9.28041Z" fill="url(#paint4_radial_4826_903)"/>
<path d="M14.7326 10.0659C14.7329 10.0598 14.7293 10.0582 14.728 10.0648C14.6281 10.5827 14.1599 10.6092 13.9297 10.5544C14.4332 10.7848 14.7159 10.4077 14.7326 10.0659Z" fill="url(#paint5_linear_4826_903)"/>
<defs>
<radialGradient id="paint0_radial_4826_903" cx="0" cy="0" r="1" gradientUnits="userSpaceOnUse" gradientTransform="translate(11.337 9.05974) rotate(-90) scale(2.67152 1.68066)">
<stop stop-color="#FD7400"/>
<stop offset="1" stop-color="#B70400"/>
</radialGradient>
<radialGradient id="paint1_radial_4826_903" cx="0" cy="0" r="1" gradientTransform="matrix(-1.02046 2.96973 -1.06102 -0.36348 10.8067 6.21704)" gradientUnits="userSpaceOnUse">
<stop stop-color="#B70400"/>
<stop offset="0.36" stop-color="#D63700"/>
<stop offset="1" stop-color="#FFF7F2"/>
</radialGradient>
<linearGradient id="paint2_linear_4826_903" x1="12.9754" y1="8.11467" x2="11.8065" y2="10.0638" gradientUnits="userSpaceOnUse">
<stop stop-color="#E59F99"/>
<stop offset="1" stop-color="#E99479"/>
</linearGradient>
<radialGradient id="paint3_radial_4826_903" cx="0" cy="0" r="1" gradientUnits="userSpaceOnUse" gradientTransform="translate(14.1727 10.2828) rotate(-90) scale(0.915663 0.576047)">
<stop stop-color="#FD7400"/>
<stop offset="1" stop-color="#B70400"/>
</radialGradient>
<radialGradient id="paint4_radial_4826_903" cx="0" cy="0" r="1" gradientTransform="matrix(-0.349762 1.01787 -0.363664 -0.124583 13.9946 9.30747)" gradientUnits="userSpaceOnUse">
<stop stop-color="#B70400"/>
<stop offset="0.36" stop-color="#D63700"/>
<stop offset="1" stop-color="#FFF7F2"/>
</radialGradient>
<linearGradient id="paint5_linear_4826_903" x1="14.7326" y1="9.95759" x2="14.3319" y2="10.6257" gradientUnits="userSpaceOnUse">
<stop stop-color="#E59F99"/>
<stop offset="1" stop-color="#E99479"/>
</linearGradient>
</defs>
</svg>
