<svg width="2444" height="2444" viewBox="0 0 2444 2444" fill="none" xmlns="http://www.w3.org/2000/svg">
<rect width="2444" height="2444" fill="white"/>
<path fill-rule="evenodd" clip-rule="evenodd" d="M503.223 1158.97C555.714 1118.67 608.203 1078.36 660.694 1038.06C791.082 1157.68 919.691 1274.5 997.331 1311.33C1231.86 1104.4 1472.53 870.215 1694.83 717.552C1827.15 594.446 1960.94 560.792 2077.92 553.719C1958.72 610.241 1842.89 696.852 1741.35 810.483C1514.24 1054.58 1240.71 1335.19 1022.53 1590.9C844.584 1385.78 666.094 1217.84 503.223 1158.97Z" fill="black" stroke="#2B2A29" stroke-width="1.06131" stroke-miterlimit="22.9256"/>
<path fill-rule="evenodd" clip-rule="evenodd" d="M2051.36 1824.3C2069.15 1824.3 2083.55 1838.7 2083.55 1856.45C2083.55 1874.21 2069.15 1888.6 2051.36 1888.6C2033.58 1888.6 2019.16 1874.21 2019.16 1856.45C2019.16 1838.7 2033.58 1824.3 2051.36 1824.3Z" fill="#E31E24"/>
<path fill-rule="evenodd" clip-rule="evenodd" d="M2195.87 1822.56C2213.65 1822.56 2228.06 1836.95 2228.06 1854.7C2228.06 1872.47 2213.65 1886.85 2195.87 1886.85C2178.09 1886.85 2163.68 1872.47 2163.68 1854.7C2163.68 1836.95 2178.09 1822.56 2195.87 1822.56Z" fill="#6EB535"/>
<path fill-rule="evenodd" clip-rule="evenodd" d="M2331.29 1822.9C2349.08 1822.9 2363.49 1837.3 2363.49 1855.06C2363.49 1872.81 2349.08 1887.21 2331.29 1887.21C2313.51 1887.21 2299.1 1872.81 2299.1 1855.06C2299.1 1837.3 2313.51 1822.9 2331.29 1822.9Z" fill="#060ECB"/>
<path d="M433.718 1876.56V1859.09C399.657 1855 392.506 1848.13 374.807 1803.87C340.017 1718.48 306.928 1631.59 272.866 1544.58L245.592 1551.1L136.62 1805.61C118.923 1848.83 113.224 1855 77.1028 1859.09L76.375 1876.56H195.289V1859.09C156.619 1854.31 155.529 1847.08 163.407 1824.14C169.347 1803.87 176.863 1785.35 182.925 1768.92H285.837C294.806 1790.47 302.925 1812.14 308.261 1826.82C316.019 1848.13 313.959 1853.95 282.32 1859.09V1876.56H433.718ZM275.895 1742.36H192.137C205.59 1706.95 219.774 1670.84 234.683 1634.97H236.137L275.895 1742.36ZM642.211 1815.86C622.936 1831.24 607.663 1836.72 585.361 1836.72C562.935 1836.72 510.813 1814.47 510.813 1748.77C510.813 1693.8 536.389 1677.37 555.902 1677.37C570.451 1677.37 587.421 1684.82 610.21 1702.99C614.816 1706.37 617.967 1708.47 621.603 1708.47C630.817 1708.47 643.909 1694.72 644.271 1681.44C644.271 1673.64 642.211 1667.47 635.058 1663.04C625.844 1655.58 608.025 1650.81 589.602 1650.81H588.877C569.361 1650.81 534.205 1656.63 498.083 1681.79C465.599 1704.74 445.357 1739.57 445.357 1776.49C445.357 1830.89 488.145 1882.14 560.513 1882.14C592.149 1882.14 627.301 1860.48 652.149 1827.87L642.211 1815.86ZM867.671 1815.86C848.392 1831.24 833.124 1836.72 810.821 1836.72C788.396 1836.72 736.273 1814.47 736.273 1748.77C736.273 1693.8 761.849 1677.37 781.363 1677.37C795.911 1677.37 812.882 1684.82 835.67 1702.99C840.277 1706.37 843.427 1708.47 847.065 1708.47C856.277 1708.47 869.369 1694.72 869.731 1681.44C869.731 1673.64 867.671 1667.47 860.52 1663.04C851.309 1655.58 833.489 1650.81 815.062 1650.81H814.338C794.82 1650.81 759.669 1656.63 723.547 1681.79C691.062 1704.74 670.817 1739.57 670.817 1776.49C670.817 1830.89 713.605 1882.14 785.973 1882.14C817.609 1882.14 852.759 1860.48 877.615 1827.87L867.671 1815.86ZM1170.71 1848.95L1159.32 1848.25C1139.44 1845.57 1136.53 1841.14 1136.53 1814.7V1652.91C1124.16 1655 1106.35 1657.1 1087.92 1658.38C1068.77 1659.9 1049.86 1660.94 1034.59 1661.64V1675.97L1052.04 1679.7C1066.22 1682.37 1069.13 1686.22 1069.13 1709.4V1829.5C1057.37 1840.44 1044.88 1843.82 1030.34 1843.82C1012.16 1843.82 994.099 1831.82 994.099 1799.67V1727.22C994.099 1699.27 994.099 1673.52 995.426 1652.91C980.645 1655 961.489 1657.1 943.553 1658.38C926.218 1659.9 910.218 1660.94 897.735 1661.64V1675.97L910.218 1679.7C923.672 1683.43 927.19 1686.22 927.19 1709.4V1809.93C927.19 1855.47 953.003 1882.03 996.521 1882.03C1012.16 1882.03 1026.82 1876.2 1042.46 1867.35C1054.1 1860.59 1059.8 1855.93 1069.13 1848.95V1879.34L1073.74 1882.03C1090.1 1879.34 1107.07 1875.85 1124.16 1872.7C1152.62 1866.85 1170.71 1874.34 1170.71 1848.95ZM1355.32 1716.5C1354.6 1706.25 1348.29 1670.38 1342.59 1658.96C1330.96 1654.53 1316.41 1650.23 1291.44 1650.81C1236.28 1650.81 1203.07 1681.68 1203.07 1721.28C1203.07 1765.08 1246.95 1784.65 1270.72 1795.6C1303.93 1810.27 1310.72 1822.27 1310.72 1836.25C1310.72 1851.27 1298.59 1862.57 1282.23 1862.57C1249.38 1862.57 1224.65 1827.75 1213.38 1796.3L1197.74 1796.88C1198.47 1822.97 1203.07 1857.8 1205.98 1865.6C1216.89 1873.06 1244.77 1882.14 1271.44 1882.14C1316.78 1882.14 1366.72 1858.15 1366.72 1808.18C1366.72 1731.58 1256.17 1744.23 1256.17 1696.7C1256.17 1680.28 1269.74 1670.38 1283.32 1670.38C1308.66 1670.38 1325.63 1691.92 1339.45 1721.28L1355.32 1716.5ZM1549.75 1857.45L1545.15 1839.4C1534.84 1843.47 1526.72 1845.57 1518.48 1845.57C1508.9 1845.57 1489.02 1841.72 1489.02 1802.47V1680.86H1537.02C1545.15 1676.09 1546.24 1661.53 1540.18 1656.4H1489.02V1583.37L1481.63 1579.99L1421.63 1619.59V1656.4H1400.29L1385.39 1674.34L1388.17 1680.86H1421.63V1818.89C1421.63 1863.97 1446.12 1882.14 1486.96 1882.14C1489.75 1882.14 1498.24 1880.75 1507.57 1876.67L1549.75 1857.45ZM1760.91 1814.24C1742.37 1829.26 1721.75 1836.01 1701.63 1836.01C1663.69 1836.01 1633.64 1809.81 1630.85 1756.34C1681.75 1754.25 1746 1749.82 1756.31 1748.19C1767.58 1746.79 1771.21 1739.69 1771.94 1730.6C1771.94 1689.94 1734.24 1650.81 1686 1650.81H1685.64C1658 1650.81 1628.66 1663.62 1604.67 1685.87C1581.39 1707.88 1566.12 1739.34 1566.12 1775.33C1566.12 1832.99 1604.67 1882.14 1674.72 1882.14C1695.94 1882.14 1737.76 1872.24 1769.76 1826.23L1760.91 1814.24ZM1674.72 1670.38C1694.84 1670.38 1707.21 1695.77 1706.48 1721.98C1706.48 1729.9 1703.69 1730.95 1695.94 1730.95C1674.72 1731.88 1654.49 1732.58 1632.91 1732.58C1636.42 1692.39 1654.12 1670.38 1674.36 1670.38H1674.72ZM1894.85 1703.93V1650.11C1860.92 1659.78 1830.13 1665.36 1799.58 1668.75V1683.3C1823.7 1688.78 1827.94 1690.88 1827.94 1715.93V1824.37C1827.94 1855.12 1822.61 1857.45 1793.88 1860.48V1876.56H1939.22V1860.48C1897.28 1857.1 1894.85 1855.12 1894.85 1824.37V1732.93C1903.7 1713.13 1914.73 1705.56 1925.03 1705.56C1933.53 1705.56 1940.92 1709.29 1949.89 1716.16C1953.4 1719.18 1958.37 1720.58 1966.13 1718.14C1980.43 1713.13 1991.7 1699.15 1991.7 1681.44C1991.7 1664.56 1977.16 1650.93 1955.58 1650.93C1936.67 1650.81 1915.46 1672.24 1895.83 1703.93H1894.85Z" fill="black"/>
<path fill-rule="evenodd" clip-rule="evenodd" d="M1545.14 1017.16L1576.56 1020.21C1587.81 1024.68 1615.85 1031.42 1633.03 1031.52C1663.15 1031.7 1660.05 1033.89 1667.83 1011.97C1671.51 1001.59 1676.66 940.066 1682.09 871.304L1665.3 890.01C1659.49 953.082 1653.86 1006.7 1649.12 1019.25C1642.62 1019.33 1561.32 1002.32 1556.53 1004.99C1552.65 1007.15 1546.41 1013.56 1545.14 1017.16ZM1694.71 718.361C1697.56 688.784 1700.2 667.447 1702.46 661.789C1703.12 663.226 1703.99 682.477 1704.93 710.201L1720.08 699.133L1715.36 636.579C1714.72 632.743 1714.44 629.357 1711.73 627.199C1709.07 625.069 1704.33 624.132 1700.31 626.184C1695.16 628.811 1693.45 639.034 1691.53 644.371C1688.05 653.989 1684 687.837 1679.69 731.592L1694.71 718.361ZM1708.95 842.876C1710.42 891.398 1711.81 931.969 1712.83 937.007C1719.84 971.414 1725.78 1011.72 1732.01 1047.47C1732.72 1051.55 1732.68 1054.68 1735.67 1056.94C1738.16 1058.83 1743.55 1059.66 1747.25 1057.78C1752.13 1055.3 1760.22 1027.19 1762.86 1019.88C1772.24 993.992 1780.81 966.462 1790.28 941.459C1811.06 942.678 1837.66 941.424 1859.06 941.314C1873.35 941.238 1875.74 940.797 1878.77 929.811C1879.8 926.031 1883.07 910.297 1886.04 907.272C1890.49 930.031 1898.44 955.556 1904.49 978.595C1905.82 983.685 1906.27 994.054 1915.18 990.96C1919.83 989.347 1920.65 979.453 1921.95 974.46C1922.68 971.628 1929.4 941.428 1932.26 939.364C1933.46 938.592 1932.59 938.871 1935.06 938.588L2012.98 937.516C2025.71 937.392 2088.08 937.575 2094.56 935.473C2089.42 933.757 1937.28 931.221 1926.28 932.916C1919.93 941.303 1918.72 959.533 1913.58 969.819C1911.26 967.11 1897.44 902.902 1895.29 893.731C1893.93 887.943 1894.05 879.147 1886.58 878.292C1877.67 877.273 1877.33 886.157 1875.54 892.296C1871.88 904.859 1867.79 917.426 1864.6 929.546C1845.7 930.059 1825.71 929.401 1806.68 929.346C1776.43 929.264 1779.92 927 1772.06 948.164C1767.58 960.215 1763.23 972.234 1758.8 984.368C1757.25 988.606 1747.6 1016.84 1744.91 1020.55C1744.8 1020.7 1744.59 1020.98 1744.39 1021.17L1729.3 821.295L1708.95 842.876Z" fill="black"/>
<path fill-rule="evenodd" clip-rule="evenodd" d="M1682.1 871.304L1694.71 718.359L1704.93 710.201L1708.95 842.878L1729.31 821.294L1720.08 699.134L1704.93 710.201L1694.71 718.359L1679.7 731.592L1665.3 890.01L1682.1 871.304Z" fill="white"/>
<path fill-rule="evenodd" clip-rule="evenodd" d="M1485.5 1034.31C1484.62 1036.71 1484.49 1036.85 1483.04 1038.97L1465.66 972.242C1463.54 964.043 1464.49 954.271 1453.28 955.208C1443.09 966.338 1444.5 1003.64 1433.94 1004.94C1425.49 1005.01 1341.24 1003.74 1339.7 1005.11L1329.46 1014.25C1331.51 1014.91 1437.15 1016.19 1442.85 1012.64C1447.46 1009.76 1452 982.765 1455.64 976.332C1458.49 980.797 1469.13 1032.72 1471.39 1042.51C1472.92 1049.21 1474.27 1073.69 1487.27 1067.22C1491.98 1064.88 1498.88 1036.02 1500.81 1027.81L1504.75 1015.04L1545.15 1017.16L1556.54 1004.99L1499.23 1003.21C1494.66 1003.07 1493.42 1008.07 1492.48 1010.74L1485.5 1034.31Z" fill="white"/>
<path d="M1207.44 1544.47C1065.76 1544.47 950.906 1430.65 950.906 1290.25C950.906 1280.95 951.408 1271.78 952.387 1262.74C967.963 1119.33 1081.91 1014.81 1187.22 788.096C1196.42 768.292 1204.01 739.767 1206.65 727.979C1207.44 726.801 1209.51 725.15 1211.41 727.979C1244.72 823.065 1255.19 865.265 1390.63 1071.78C1404.24 1093.79 1434.41 1145.65 1446.14 1177.09C1460.81 1216.38 1470.66 1258.21 1462.73 1315.57C1449.9 1444.08 1340.5 1544.47 1207.44 1544.47Z" fill="url(#paint0_radial_4645_2)"/>
<path d="M1133.48 962.168C1137.54 961.644 1146.46 961.147 1149.61 963.347C1137.67 1006.7 1111.44 1102.2 1101.99 1137.41C1090.19 1181.41 1077.21 1212.45 1080.35 1321.69C1081.67 1346.05 1079.88 1395.95 1062.26 1400.66C1044.64 1405.38 1023.7 1390.32 1015.44 1382.19C1007.04 1372.5 990.726 1344.55 992.616 1310.29C994.977 1267.46 992.616 1263.93 1011.89 1196.74C1037.04 1109.12 1087.83 1043.89 1133.48 962.168Z" fill="url(#paint1_radial_4645_2)"/>
<path d="M1436.42 1281.21C1436.55 1278.7 1435.09 1278.07 1434.57 1280.76C1393.97 1491.05 1203.88 1501.84 1110.36 1479.57C1314.85 1573.15 1429.62 1419.98 1436.42 1281.21Z" fill="url(#paint2_linear_4645_2)"/>
<path d="M1602.79 1599.15C1554.22 1599.15 1514.86 1560.15 1514.86 1512.02C1514.86 1508.84 1515.03 1505.69 1515.36 1502.59C1520.7 1453.44 1559.75 1417.61 1595.85 1339.91C1599.01 1333.12 1601.61 1323.34 1602.51 1319.3C1602.79 1318.9 1603.49 1318.33 1604.14 1319.3C1615.56 1351.89 1619.15 1366.36 1665.57 1437.14C1670.24 1444.69 1680.57 1462.46 1684.59 1473.24C1689.62 1486.7 1693 1501.04 1690.28 1520.7C1685.89 1564.75 1648.39 1599.15 1602.79 1599.15Z" fill="url(#paint3_radial_4645_2)"/>
<path d="M1577.41 1399.57C1578.81 1399.4 1581.86 1399.22 1582.94 1399.97C1578.85 1414.83 1569.86 1447.57 1566.63 1459.63C1562.58 1474.72 1558.13 1485.36 1559.21 1522.8C1559.65 1531.15 1559.04 1548.25 1553 1549.87C1546.96 1551.48 1539.79 1546.32 1536.96 1543.53C1534.08 1540.21 1528.49 1530.64 1529.13 1518.89C1529.94 1504.21 1529.13 1503 1535.75 1479.97C1544.36 1449.94 1561.77 1427.58 1577.41 1399.57Z" fill="url(#paint4_radial_4645_2)"/>
<path d="M1681.27 1508.92C1681.31 1508.07 1680.81 1507.85 1680.63 1508.77C1666.72 1580.85 1601.56 1584.54 1569.51 1576.91C1639.6 1608.98 1678.94 1556.49 1681.27 1508.92Z" fill="url(#paint5_linear_4645_2)"/>
<defs>
<radialGradient id="paint0_radial_4645_2" cx="0" cy="0" r="1" gradientUnits="userSpaceOnUse" gradientTransform="translate(1208.23 1368.69) rotate(-90) scale(371.84 233.927)">
<stop stop-color="#FD7400"/>
<stop offset="1" stop-color="#B70400"/>
</radialGradient>
<radialGradient id="paint1_radial_4645_2" cx="0" cy="0" r="1" gradientTransform="matrix(-142.035 413.348 -147.68 -50.5917 1134.65 973.17)" gradientUnits="userSpaceOnUse">
<stop stop-color="#B70400"/>
<stop offset="0.36" stop-color="#D63700"/>
<stop offset="1" stop-color="#FFF7F2"/>
</radialGradient>
<linearGradient id="paint2_linear_4645_2" x1="1436.42" y1="1237.21" x2="1273.73" y2="1508.51" gradientUnits="userSpaceOnUse">
<stop stop-color="#E59F99"/>
<stop offset="1" stop-color="#E99479"/>
</linearGradient>
<radialGradient id="paint3_radial_4645_2" cx="0" cy="0" r="1" gradientUnits="userSpaceOnUse" gradientTransform="translate(1603.05 1538.91) rotate(-90) scale(127.449 80.1783)">
<stop stop-color="#FD7400"/>
<stop offset="1" stop-color="#B70400"/>
</radialGradient>
<radialGradient id="paint4_radial_4645_2" cx="0" cy="0" r="1" gradientTransform="matrix(-48.6824 141.675 -50.6173 -17.3403 1577.81 1403.34)" gradientUnits="userSpaceOnUse">
<stop stop-color="#B70400"/>
<stop offset="0.36" stop-color="#D63700"/>
<stop offset="1" stop-color="#FFF7F2"/>
</radialGradient>
<linearGradient id="paint5_linear_4645_2" x1="1681.27" y1="1493.84" x2="1625.5" y2="1586.83" gradientUnits="userSpaceOnUse">
<stop stop-color="#E59F99"/>
<stop offset="1" stop-color="#E99479"/>
</linearGradient>
</defs>
</svg>
