<svg width="69" height="95" viewBox="0 0 69 95" fill="none" xmlns="http://www.w3.org/2000/svg">
<path d="M4.16615 90.8952L5.26617 91.244C5.09753 91.8573 4.81646 92.3134 4.42295 92.6123C4.03201 92.9087 3.53502 93.0569 2.93199 93.0569C2.18586 93.0569 1.57261 92.8027 1.09223 92.2942C0.611852 91.7832 0.371662 91.0856 0.371662 90.2015C0.371662 89.2663 0.613129 88.5406 1.09606 88.0244C1.579 87.5057 2.21397 87.2464 3.00098 87.2464C3.68833 87.2464 4.24664 87.4495 4.67592 87.8558C4.93144 88.096 5.12308 88.4409 5.25084 88.8907L4.12783 89.159C4.06139 88.8677 3.92213 88.6377 3.71005 88.4691C3.50052 88.3004 3.245 88.2161 2.94348 88.2161C2.52698 88.2161 2.18842 88.3656 1.92779 88.6645C1.66971 88.9635 1.54067 89.4477 1.54067 90.1172C1.54067 90.8275 1.66843 91.3334 1.92395 91.635C2.17948 91.9365 2.51165 92.0872 2.92049 92.0872C3.222 92.0872 3.48136 91.9914 3.69855 91.7998C3.91574 91.6081 4.07161 91.3066 4.16615 90.8952ZM6.54986 92.9611V87.3422H7.62689V92.9611H6.54986ZM9.04856 88.3387V87.3422H10.1256V88.3387H9.04856ZM9.04856 92.9611V88.8907H10.1256V92.9611H9.04856ZM15.2498 92.9611H14.1727V90.8837C14.1727 90.4442 14.1497 90.1606 14.1037 90.0328C14.0577 89.9025 13.9824 89.8016 13.8776 89.7301C13.7754 89.6585 13.6515 89.6227 13.5058 89.6227C13.3193 89.6227 13.1519 89.6738 13.0037 89.776C12.8555 89.8783 12.7533 90.0137 12.6971 90.1823C12.6434 90.351 12.6166 90.6627 12.6166 91.1175V92.9611H11.5396V88.8907H12.5399V89.4886C12.8951 89.0286 13.3423 88.7987 13.8814 88.7987C14.1191 88.7987 14.3363 88.8421 14.533 88.929C14.7298 89.0133 14.878 89.1219 14.9776 89.2548C15.0798 89.3877 15.1501 89.5384 15.1884 89.7071C15.2293 89.8757 15.2498 90.1172 15.2498 90.4315V92.9611ZM16.6599 88.3387V87.3422H17.7369V88.3387H16.6599ZM16.6599 92.9611V88.8907H17.7369V92.9611H16.6599ZM22.7078 90.0942L21.6461 90.2858C21.6103 90.0737 21.5286 89.914 21.4008 89.8067C21.2756 89.6994 21.1121 89.6457 20.9102 89.6457C20.6419 89.6457 20.4273 89.739 20.2663 89.9255C20.1079 90.1095 20.0287 90.4187 20.0287 90.8531C20.0287 91.336 20.1092 91.6771 20.2701 91.8764C20.4337 92.0757 20.6521 92.1754 20.9255 92.1754C21.13 92.1754 21.2973 92.1179 21.4276 92.0029C21.558 91.8854 21.65 91.6848 21.7036 91.4012L22.7615 91.5813C22.6516 92.0668 22.4408 92.4335 22.1291 92.6813C21.8173 92.9292 21.3995 93.0531 20.8757 93.0531C20.2804 93.0531 19.8051 92.8653 19.4499 92.4897C19.0973 92.1141 18.921 91.5941 18.921 90.9297C18.921 90.2577 19.0986 89.7352 19.4537 89.3621C19.8089 88.9865 20.2893 88.7987 20.8949 88.7987C21.3906 88.7987 21.7841 88.906 22.0754 89.1206C22.3692 89.3327 22.58 89.6572 22.7078 90.0942ZM26.1184 90.1862C26.1184 89.6138 26.204 89.1334 26.3752 88.745C26.503 88.4588 26.6767 88.202 26.8965 87.9746C27.1188 87.7472 27.3615 87.5786 27.6247 87.4687C27.9748 87.3205 28.3785 87.2464 28.8359 87.2464C29.6638 87.2464 30.3256 87.5032 30.8213 88.0168C31.3195 88.5304 31.5687 89.2446 31.5687 90.1593C31.5687 91.0664 31.3221 91.7768 30.8289 92.2904C30.3358 92.8014 29.6765 93.0569 28.8512 93.0569C28.0157 93.0569 27.3513 92.8027 26.8581 92.2942C26.365 91.7832 26.1184 91.0805 26.1184 90.1862ZM27.2874 90.1478C27.2874 90.7841 27.4343 91.267 27.7282 91.5966C28.022 91.9237 28.3951 92.0872 28.8474 92.0872C29.2996 92.0872 29.6702 91.925 29.9589 91.6005C30.2502 91.2734 30.3958 90.7841 30.3958 90.1325C30.3958 89.4886 30.254 89.0082 29.9704 88.6914C29.6893 88.3745 29.315 88.2161 28.8474 88.2161C28.3798 88.2161 28.0029 88.3771 27.7167 88.699C27.4305 89.0184 27.2874 89.5014 27.2874 90.1478ZM36.4667 92.9611H35.3897V90.8837C35.3897 90.4442 35.3667 90.1606 35.3207 90.0328C35.2747 89.9025 35.1993 89.8016 35.0946 89.7301C34.9924 89.6585 34.8684 89.6227 34.7228 89.6227C34.5363 89.6227 34.3689 89.6738 34.2207 89.776C34.0725 89.8783 33.9703 90.0137 33.9141 90.1823C33.8604 90.351 33.8336 90.6627 33.8336 91.1175V92.9611H32.7565V88.8907H33.7569V89.4886C34.1121 89.0286 34.5592 88.7987 35.0984 88.7987C35.336 88.7987 35.5532 88.8421 35.75 88.929C35.9467 89.0133 36.0949 89.1219 36.1946 89.2548C36.2968 89.3877 36.3671 89.5384 36.4054 89.7071C36.4463 89.8757 36.4667 90.1172 36.4667 90.4315V92.9611ZM41.6481 92.9611V88.2927H39.9808V87.3422H44.446V88.2927H42.7826V92.9611H41.6481ZM46.5614 87.3422V89.4081C46.909 89.0018 47.3242 88.7987 47.8071 88.7987C48.055 88.7987 48.2785 88.8447 48.4779 88.9367C48.6772 89.0286 48.8266 89.1462 48.9263 89.2893C49.0285 89.4324 49.0975 89.5908 49.1333 89.7645C49.1716 89.9383 49.1908 90.2079 49.1908 90.5733V92.9611H48.1137V90.8109C48.1137 90.3842 48.0933 90.1133 48.0524 89.9983C48.0115 89.8834 47.9387 89.7927 47.8339 89.7262C47.7317 89.6572 47.6027 89.6227 47.4468 89.6227C47.268 89.6227 47.1083 89.6662 46.9677 89.753C46.8272 89.8399 46.7237 89.9715 46.6573 90.1478C46.5934 90.3216 46.5614 90.5797 46.5614 90.9221V92.9611H45.4844V87.3422H46.5614ZM52.9581 91.6656L54.0313 91.8458C53.8933 92.2393 53.6749 92.5395 53.3759 92.7465C53.0795 92.9509 52.7077 93.0531 52.2605 93.0531C51.5527 93.0531 51.0289 92.8219 50.6891 92.3594C50.4208 91.9889 50.2866 91.5213 50.2866 90.9566C50.2866 90.282 50.4629 89.7543 50.8156 89.3736C51.1682 88.9903 51.6141 88.7987 52.1532 88.7987C52.7588 88.7987 53.2366 88.9993 53.5867 89.4004C53.9368 89.799 54.1041 90.411 54.0888 91.2364H51.3905C51.3982 91.5558 51.485 91.8049 51.6511 91.9838C51.8172 92.1601 52.0242 92.2482 52.272 92.2482C52.4407 92.2482 52.5825 92.2022 52.6975 92.1102C52.8125 92.0182 52.8993 91.87 52.9581 91.6656ZM53.0194 90.5771C53.0118 90.2654 52.9313 90.029 52.778 89.868C52.6247 89.7045 52.4381 89.6227 52.2184 89.6227C51.9833 89.6227 51.7891 89.7083 51.6358 89.8795C51.4825 90.0507 51.4071 90.2833 51.4097 90.5771H53.0194ZM60.4047 90.8952V89.9485H62.85V92.1869C62.6124 92.4169 62.2674 92.62 61.8152 92.7963C61.3654 92.9701 60.9093 93.0569 60.4468 93.0569C59.8591 93.0569 59.3468 92.9343 58.9099 92.689C58.4729 92.4411 58.1446 92.0885 57.9248 91.6311C57.7051 91.1712 57.5952 90.6716 57.5952 90.1325C57.5952 89.5474 57.7179 89.0274 57.9632 88.5725C58.2085 88.1177 58.5675 87.7689 59.0402 87.5262C59.4005 87.3396 59.8489 87.2464 60.3855 87.2464C61.0831 87.2464 61.6273 87.3933 62.0183 87.6872C62.4118 87.9785 62.6648 88.3822 62.7772 88.8983L61.6503 89.1091C61.5711 88.8332 61.4217 88.616 61.2019 88.4576C60.9847 88.2966 60.7126 88.2161 60.3855 88.2161C59.8898 88.2161 59.495 88.3732 59.2012 88.6875C58.9099 89.0018 58.7642 89.4681 58.7642 90.0865C58.7642 90.7534 58.9124 91.2542 59.2088 91.589C59.5052 91.9211 59.8936 92.0872 60.374 92.0872C60.6116 92.0872 60.8493 92.0412 61.0869 91.9493C61.3271 91.8547 61.5328 91.741 61.704 91.6081V90.8952H60.4047ZM63.9574 90.8684C63.9574 90.5107 64.0455 90.1644 64.2219 89.8297C64.3982 89.495 64.6473 89.2395 64.9693 89.0631C65.2938 88.8868 65.6553 88.7987 66.0539 88.7987C66.6698 88.7987 67.1744 88.9993 67.5679 89.4004C67.9614 89.799 68.1582 90.3037 68.1582 90.9144C68.1582 91.5302 67.9589 92.0412 67.5602 92.4475C67.1642 92.8512 66.6646 93.0531 66.0616 93.0531C65.6885 93.0531 65.3321 92.9688 64.9923 92.8001C64.655 92.6315 64.3982 92.3849 64.2219 92.0604C64.0455 91.7333 63.9574 91.336 63.9574 90.8684ZM65.0612 90.9259C65.0612 91.3296 65.1571 91.6388 65.3487 91.8534C65.5403 92.0681 65.7767 92.1754 66.0578 92.1754C66.3389 92.1754 66.5739 92.0681 66.763 91.8534C66.9547 91.6388 67.0505 91.3271 67.0505 90.9182C67.0505 90.5196 66.9547 90.213 66.763 89.9983C66.5739 89.7837 66.3389 89.6764 66.0578 89.6764C65.7767 89.6764 65.5403 89.7837 65.3487 89.9983C65.1571 90.213 65.0612 90.5222 65.0612 90.9259Z" fill="#0000FF"/>
<path d="M0.553284 84.2329V68.9321H3.50476V81.6337H10.8436V84.2329H0.553284Z" fill="#0000FF"/>
<path d="M15.6441 76.4668L13.1014 75.9827C13.3873 74.9023 13.8792 74.1025 14.5772 73.5834C15.2752 73.0642 16.3122 72.8047 17.6882 72.8047C18.9379 72.8047 19.8686 72.9625 20.4801 73.2782C21.0917 73.5869 21.5205 73.9833 21.7664 74.4673C22.019 74.9444 22.1453 75.8248 22.1453 77.1087L22.1154 80.5603C22.1154 81.5425 22.1586 82.2686 22.245 82.7386C22.3381 83.2016 22.5076 83.6997 22.7536 84.2329H19.9816C19.9085 84.0365 19.8187 83.7453 19.7124 83.3595C19.6658 83.1841 19.6326 83.0683 19.6126 83.0122C19.134 83.5033 18.6222 83.8716 18.0771 84.1171C17.532 84.3627 16.9503 84.4855 16.3321 84.4855C15.2419 84.4855 14.3811 84.1733 13.7496 83.5489C13.1247 82.9245 12.8123 82.1353 12.8123 81.1812C12.8123 80.5498 12.9552 79.9885 13.241 79.4974C13.5269 78.9993 13.9257 78.6205 14.4376 78.3609C14.9561 78.0944 15.7006 77.8628 16.6711 77.6664C17.9807 77.4068 18.8881 77.1648 19.3933 76.9403V76.6457C19.3933 76.0774 19.2603 75.674 18.9944 75.4355C18.7285 75.1899 18.2267 75.0672 17.4888 75.0672C16.9902 75.0672 16.6013 75.1724 16.3221 75.3829C16.043 75.5863 15.8169 75.9476 15.6441 76.4668ZM19.3933 78.8661C19.0343 78.9923 18.466 79.1432 17.6882 79.3186C16.9104 79.4939 16.4019 79.6658 16.1626 79.8342C15.797 80.1078 15.6142 80.4551 15.6142 80.876C15.6142 81.2899 15.7604 81.6477 16.0529 81.9494C16.3454 82.251 16.7177 82.4019 17.1697 82.4019C17.6749 82.4019 18.1569 82.2265 18.6155 81.8757C18.9545 81.6091 19.1772 81.2829 19.2836 80.897C19.3567 80.6445 19.3933 80.1639 19.3933 79.4554V78.8661Z" fill="#0000FF"/>
<path d="M25.5599 68.8058H31.403C32.5597 68.8058 33.4205 68.8585 33.9855 68.9637C34.5572 69.0619 35.0658 69.2724 35.5111 69.5951C35.9632 69.9178 36.3387 70.3493 36.6379 70.8894C36.937 71.4226 37.0866 72.0224 37.0866 72.6889C37.0866 73.4115 36.9005 74.0745 36.5282 74.6778C36.1626 75.2811 35.664 75.7336 35.0325 76.0353C35.9233 76.3089 36.608 76.7754 37.0866 77.4349C37.5652 78.0944 37.8045 78.8696 37.8045 79.7605C37.8045 80.4621 37.6483 81.1461 37.3359 81.8126C37.0301 82.472 36.608 83.0017 36.0695 83.4016C35.5377 83.7944 34.8796 84.0365 34.0952 84.1277C33.6033 84.1838 32.4167 84.2189 30.5355 84.2329H25.5599V68.8058ZM28.5114 71.3735V74.9409H30.4458C31.5958 74.9409 32.3104 74.9234 32.5896 74.8883C33.0948 74.8251 33.4903 74.6427 33.7761 74.3411C34.0686 74.0324 34.2149 73.629 34.2149 73.1309C34.2149 72.6538 34.0886 72.268 33.836 71.9733C33.59 71.6717 33.2211 71.4893 32.7292 71.4261C32.4367 71.3911 31.5958 71.3735 30.2065 71.3735H28.5114ZM28.5114 77.5086V81.6337H31.2435C32.3071 81.6337 32.9818 81.6021 33.2676 81.539C33.7064 81.4548 34.062 81.2513 34.3345 80.9286C34.6137 80.5989 34.7533 80.1604 34.7533 79.6132C34.7533 79.1502 34.647 78.7573 34.4342 78.4346C34.2215 78.1119 33.9124 77.8769 33.5069 77.7295C33.1081 77.5822 32.2373 77.5086 30.8945 77.5086H28.5114Z" fill="#0000FF"/>
<path d="M40.9 71.5419V68.8058H43.7019V71.5419H40.9ZM40.9 84.2329V73.0572H43.7019V84.2329H40.9Z" fill="#0000FF"/>
<path d="M47.0965 84.2329V68.8058H49.8984V76.9929L53.1789 73.0572H56.629L53.0094 77.1402L56.8882 84.2329H53.8669L51.2046 79.2133L49.8984 80.655V84.2329H47.0965Z" fill="#0000FF"/>
<path d="M65.3083 80.6761L68.1002 81.1706C67.7413 82.251 67.1729 83.0753 66.3952 83.6436C65.6241 84.2048 64.6568 84.4855 63.4935 84.4855C61.6522 84.4855 60.2895 83.8506 59.4053 82.5808C58.7074 81.5635 58.3584 80.2797 58.3584 78.7293C58.3584 76.8772 58.817 75.4285 59.7344 74.3832C60.6517 73.3308 61.8117 72.8047 63.2143 72.8047C64.7898 72.8047 66.0329 73.3554 66.9436 74.4568C67.8543 75.5512 68.2897 77.2314 68.2498 79.4974H61.2301C61.25 80.3744 61.476 81.0584 61.9081 81.5495C62.3402 82.0335 62.8786 82.2756 63.5235 82.2756C63.9622 82.2756 64.3311 82.1493 64.6303 81.8967C64.9294 81.6442 65.1554 81.2373 65.3083 80.6761ZM65.4678 77.6875C65.4479 76.8316 65.2385 76.1826 64.8396 75.7407C64.4408 75.2917 63.9555 75.0672 63.3839 75.0672C62.7723 75.0672 62.2671 75.3022 61.8682 75.7722C61.4694 76.2423 61.2733 76.8807 61.2799 77.6875H65.4678Z" fill="#0000FF"/>
<path fill-rule="evenodd" clip-rule="evenodd" d="M44.0873 0V18.2621H64.1941V36.8932H44.0873V55.1553H24.3494V36.8932H4.42706V18.2621H24.3494V0H44.0873ZM40.029 51.0971H28.4076V32.835H8.48532V22.3204H28.4076V4.05825H40.029V22.3204H60.1358V32.835H40.029V51.0971Z" fill="url(#paint0_linear_2030_2620)"/>
<path fill-rule="evenodd" clip-rule="evenodd" d="M64.8238 21.9599L64.4359 22.3737C63.577 23.6764 63.1399 25.2963 62.5684 27.4145C61.9174 29.8273 61.0919 32.8866 59.27 36.8602L58.3028 38.6988C57.2693 40.6632 55.9302 42.4085 54.3626 43.853C53.1165 44.8748 51.1038 46.2409 49.275 47.2878C48.0409 47.9942 48.1766 47.7532 49.4884 46.9089L50.5824 46.2049C53.4257 44.3002 55.7632 39.0757 56.5765 36.7015L57.0269 35.5997C57.5096 34.4188 57.5936 33.5766 57.2855 33.0043C57.2681 32.972 57.2529 32.9425 57.241 32.9158C57.0899 32.6819 56.6356 32.3962 55.6793 32.648C55.45 32.7655 55.3123 32.8787 55.1464 33.0152C55.0883 33.0631 55.0267 33.1138 54.9564 33.1685C54.0917 33.7913 52.5528 35.4602 52.1765 36.1832L51.907 36.7015C51.3843 37.6893 50.2721 39.5318 47.685 41.3014C47.2249 41.5767 46.7287 41.8242 46.1962 42.0305C45.264 42.5451 44.4595 42.9661 44.4089 42.9661C43.2604 43.5536 40.7284 44.962 40.1485 45.5497L38.7144 46.9629C37.7421 47.9208 37.0531 48.8062 36.5749 49.7118L35.9434 50.889C35.6437 51.6959 35.0451 53.6364 35.0485 54.9425V56.2336C35.0485 58.3847 35.5512 60.9611 36.5764 64.063C37.213 65.9891 37.4702 66.9874 38.0619 67.2552C38.7286 67.557 39.82 66.9317 42.3573 65.6618C45.9519 63.8627 50.8367 61.1708 52.125 60.2792C55.3696 57.9571 61.0232 53.8114 62.0547 52.1903C65.073 48.4226 67.2013 43.0551 68.0504 37.07C68.36 34.8883 68.3053 30.2019 67.9429 27.8628C67.8536 27.2859 67.7709 26.8303 67.6842 26.4731C67.3568 24.7183 66.9389 23.1692 66.5138 22.3042C66.1153 21.4935 65.3979 21.3474 64.8238 21.9599Z" fill="url(#paint1_linear_2030_2620)"/>
<path d="M66.2558 21.9404C65.7847 21.2632 65.3027 21.6945 65.0568 22.0327C65.7022 22.586 66.5692 22.5491 65.9789 31.2559C64.5954 42.8772 61.8284 48.6879 58.416 51.7316C56.1286 53.9452 58.9692 54.9598 60.2607 54.0374C70.1296 45.6442 69.2073 26.183 66.2558 21.9404Z" fill="url(#paint2_linear_2030_2620)"/>
<path d="M35.5475 60.2888C36.639 65.0187 38.253 62.195 38.5912 60.2888C42.1883 49.4974 42.8339 51.2498 50.8582 45.9003C52.8873 43.9634 53.533 43.3179 56.5767 36.7694C59.6203 30.2208 54.3633 32.0653 51.9652 36.2158C50.2128 40.3664 46.2468 41.3809 40.7126 45.2548C36.5621 47.7451 33.8873 53.0944 35.5475 60.2888Z" fill="url(#paint3_linear_2030_2620)"/>
<path fill-rule="evenodd" clip-rule="evenodd" d="M3.62435 21.9599L4.01232 22.3737C4.87117 23.6764 5.30826 25.2963 5.87981 27.4145C6.53082 29.8273 7.35629 32.8866 9.17819 36.8602L10.1454 38.6988C11.1789 40.6632 12.518 42.4085 14.0855 43.853C15.3317 44.8748 17.3444 46.2409 19.1731 47.2878C20.4073 47.9942 20.2716 47.7532 18.9598 46.9089L17.8658 46.2049C15.0225 44.3002 12.685 39.0757 11.8717 36.7015L11.4213 35.5997C10.9386 34.4188 10.8546 33.5766 11.1627 33.0043C11.1801 32.972 11.1953 32.9425 11.2071 32.9158C11.3583 32.6819 11.8126 32.3962 12.7689 32.648C12.9982 32.7655 13.1359 32.8787 13.3018 33.0152C13.3599 33.0631 13.4215 33.1138 13.4918 33.1685C14.3565 33.7913 15.8954 35.4602 16.2717 36.1832L16.5412 36.7015C17.0639 37.6893 18.1761 39.5318 20.7632 41.3014C21.2232 41.5767 21.7195 41.8242 22.252 42.0305C23.1842 42.5451 23.9887 42.9661 24.0393 42.9661C25.1878 43.5536 27.7198 44.962 28.2997 45.5497L29.7338 46.9629C30.706 47.9208 31.395 48.8062 31.8733 49.7118L32.5048 50.889C32.8045 51.6959 33.403 53.6364 33.3997 54.9425V56.2336C33.3997 58.3847 32.897 60.9611 31.8718 64.063C31.2352 65.9891 30.978 66.9874 30.3863 67.2552C29.7196 67.557 28.6282 66.9317 26.0909 65.6618C22.4963 63.8627 17.6115 61.1708 16.3232 60.2792C13.0786 57.9571 7.42501 53.8114 6.39349 52.1903C3.37522 48.4226 1.24689 43.0551 0.397742 37.07C0.0881861 34.8883 0.142868 30.2019 0.505253 27.8628C0.59463 27.2859 0.677283 26.8303 0.763949 26.4731C1.09137 24.7183 1.50928 23.1692 1.9344 22.3042C2.33293 21.4935 3.05028 21.3474 3.62435 21.9599Z" fill="url(#paint4_linear_2030_2620)"/>
<path d="M2.19242 21.9404C2.66353 21.2632 3.14549 21.6945 3.39145 22.0327C2.74603 22.586 1.87904 22.5491 2.46933 31.2559C3.85282 42.8772 6.61981 48.6879 10.0322 51.7316C12.3196 53.9452 9.47909 54.9598 8.18757 54.0374C-1.68137 45.6442 -0.759037 26.183 2.19242 21.9404Z" fill="url(#paint5_linear_2030_2620)"/>
<path d="M32.9006 60.2888C31.8091 65.0187 30.1951 62.195 29.8569 60.2888C26.2598 49.4974 25.6142 51.2498 17.5899 45.9003C15.5608 43.9634 14.9152 43.3179 11.8715 36.7694C8.82777 30.2208 14.0848 32.0653 16.4829 36.2158C18.2353 40.3664 22.2013 41.3809 27.7355 45.2548C31.886 47.7451 34.5608 53.0944 32.9006 60.2888Z" fill="url(#paint6_linear_2030_2620)"/>
<path d="M31.3999 32.0291H28.5524V23.9964H31.4234C32.2314 23.9964 32.927 24.1572 33.5101 24.4789C34.0932 24.7979 34.5416 25.2568 34.8554 25.8555C35.1718 26.4543 35.33 27.1708 35.33 28.0049C35.33 28.8416 35.1718 29.5607 34.8554 30.1621C34.5416 30.7635 34.0905 31.225 33.5022 31.5467C32.9165 31.8683 32.2157 32.0291 31.3999 32.0291ZM30.2507 30.5739H31.3293C31.8314 30.5739 32.2536 30.485 32.5962 30.3072C32.9413 30.1268 33.2002 29.8483 33.3728 29.4718C33.548 29.0927 33.6356 28.6037 33.6356 28.0049C33.6356 27.4114 33.548 26.9263 33.3728 26.5498C33.2002 26.1732 32.9426 25.8961 32.6001 25.7183C32.2576 25.5405 31.8353 25.4516 31.3332 25.4516H30.2507V30.5739ZM36.5566 32.0291V26.0046H38.1765V27.0557H38.2392C38.3491 26.6818 38.5334 26.3994 38.7923 26.2085C39.0511 26.0151 39.3492 25.9183 39.6865 25.9183C39.7702 25.9183 39.8604 25.9235 39.9572 25.934C40.0539 25.9445 40.1389 25.9588 40.2121 25.9771V27.4597C40.1337 27.4362 40.0251 27.4153 39.8866 27.397C39.748 27.3787 39.6212 27.3695 39.5061 27.3695C39.2603 27.3695 39.0407 27.4231 38.8472 27.5303C38.6563 27.6349 38.5046 27.7813 38.3922 27.9696C38.2824 28.1579 38.2275 28.3749 38.2275 28.6207V32.0291H36.5566Z" fill="#0000FF"/>
<defs>
<linearGradient id="paint0_linear_2030_2620" x1="34.3106" y1="0" x2="34.3106" y2="55.1553" gradientUnits="userSpaceOnUse">
<stop stop-color="#00F3FF"/>
<stop offset="0.25" stop-color="#00D6FF"/>
<stop offset="0.5" stop-color="#0046FF"/>
<stop offset="0.75" stop-color="#000BE7"/>
<stop offset="1" stop-color="#001DC0"/>
</linearGradient>
<linearGradient id="paint1_linear_2030_2620" x1="51.6504" y1="21.5826" x2="51.6504" y2="67.3302" gradientUnits="userSpaceOnUse">
<stop stop-color="#00FFFF"/>
<stop offset="0.245225" stop-color="#00FFFF"/>
<stop offset="0.495242" stop-color="#00A7FF"/>
<stop offset="0.711602" stop-color="#0008E4"/>
<stop offset="1" stop-color="#00209A"/>
</linearGradient>
<linearGradient id="paint2_linear_2030_2620" x1="62.9084" y1="21.5826" x2="62.9084" y2="54.3775" gradientUnits="userSpaceOnUse">
<stop stop-color="#01DDFC"/>
<stop offset="0.382961" stop-color="#02ABF7"/>
<stop offset="0.649457" stop-color="#038CF4"/>
<stop offset="1" stop-color="#046DF0"/>
</linearGradient>
<linearGradient id="paint3_linear_2030_2620" x1="54.3251" y1="31.5437" x2="35.5096" y2="61.9806" gradientUnits="userSpaceOnUse">
<stop stop-color="#00FFFF"/>
<stop offset="0.25373" stop-color="#00EDFF"/>
<stop offset="0.498198" stop-color="#008BFF"/>
<stop offset="0.749465" stop-color="#0002FF"/>
<stop offset="1" stop-color="#0500DD"/>
</linearGradient>
<linearGradient id="paint4_linear_2030_2620" x1="16.7978" y1="21.5826" x2="16.7978" y2="67.3302" gradientUnits="userSpaceOnUse">
<stop stop-color="#00FFFF"/>
<stop offset="0.245225" stop-color="#00FFFF"/>
<stop offset="0.495242" stop-color="#00A7FF"/>
<stop offset="0.711602" stop-color="#0008E4"/>
<stop offset="1" stop-color="#00209A"/>
</linearGradient>
<linearGradient id="paint5_linear_2030_2620" x1="5.53982" y1="21.5826" x2="5.53982" y2="54.3775" gradientUnits="userSpaceOnUse">
<stop stop-color="#01DDFC"/>
<stop offset="0.382961" stop-color="#02ABF7"/>
<stop offset="0.649457" stop-color="#038CF4"/>
<stop offset="1" stop-color="#046DF0"/>
</linearGradient>
<linearGradient id="paint6_linear_2030_2620" x1="14.123" y1="31.5437" x2="32.9386" y2="61.9806" gradientUnits="userSpaceOnUse">
<stop stop-color="#00FFFF"/>
<stop offset="0.25373" stop-color="#00EDFF"/>
<stop offset="0.498198" stop-color="#008BFF"/>
<stop offset="0.749465" stop-color="#0002FF"/>
<stop offset="1" stop-color="#0500DD"/>
</linearGradient>
</defs>
</svg>
